<?xml version="1.0" encoding="UTF-8"?>
<!--Generator: Apple Native CoreSVG 175.5-->
<!DOCTYPE svg
PUBLIC "-//W3C//DTD SVG 1.1//EN"
       "http://www.w3.org/Graphics/SVG/1.1/DTD/svg11.dtd">
<svg version="1.1" xmlns="http://www.w3.org/2000/svg" xmlns:xlink="http://www.w3.org/1999/xlink" width="15.4836" height="15.5008">
 <g>
  <rect height="15.5008" opacity="0" width="15.4836" x="0" y="0"/>
  <path d="M0.249453 15.2491C0.59545 15.5847 1.15688 15.5847 1.49465 15.2491L7.73767 8.99359L13.9932 15.2491C14.3184 15.5847 14.8902 15.5847 15.228 15.2491C15.5637 14.901 15.5637 14.3395 15.228 14.0121L8.97252 7.75874L15.228 1.51572C15.5637 1.17798 15.574 0.606174 15.228 0.270526C14.8799-0.0568719 14.3184-0.0568719 13.9932 0.270526L7.73767 6.5239L1.49465 0.270526C1.15688-0.0568719 0.585081-0.0672368 0.249453 0.270526C-0.0779554 0.616518-0.0779554 1.17798 0.249453 1.51572L6.50282 7.75874L0.249453 14.0121C-0.0779554 14.3395-0.0883066 14.9113 0.249453 15.2491Z" />
 </g>
</svg>
